inDegrees=no
num_controls=7
num_derivatives=13
num_iterations=181
num_multipliers=7
num_parameters=0
num_slacks=7
num_states=26
objective=5.933135
objective_accelerations=0.783934
objective_balance=0.012665
objective_effort=0.526744
objective_height=4.539795
objective_ligament=0.069997
solver_duration=1516.226457
status=Solve_Succeeded
success=true
DataType=double
version=3
OpenSimVersion=4.4-2022-07-23-0e9fedc
endheader
time	/jointset/ground_pelvis/pelvis_tilt/value	/jointset/ground_pelvis/pelvis_tx/value	/jointset/ground_pelvis/pelvis_ty/value	/jointset/hip_r/hip_flexion_r/value	/jointset/hip_r/hip_adduction_r/value	/jointset/hip_r/hip_rotation_r/value	/jointset/back/lumbar_extension/value	/jointset/patellofemoral_r/patellar_flexion_r/value	/jointset/knee_r/knee_flexion_r/value	/jointset/knee_r/knee_adduction_r/value	/jointset/knee_r/knee_rotation_r/value	/jointset/ankle_r/ankle_angle_r/value	/jointset/subtalar_r/subtalar_angle_r/value	/jointset/ground_pelvis/pelvis_tilt/speed	/jointset/ground_pelvis/pelvis_tx/speed	/jointset/ground_pelvis/pelvis_ty/speed	/jointset/hip_r/hip_flexion_r/speed	/jointset/hip_r/hip_adduction_r/speed	/jointset/hip_r/hip_rotation_r/speed	/jointset/back/lumbar_extension/speed	/jointset/patellofemoral_r/patellar_flexion_r/speed	/jointset/knee_r/knee_flexion_r/speed	/jointset/knee_r/knee_adduction_r/speed	/jointset/knee_r/knee_rotation_r/speed	/jointset/ankle_r/ankle_angle_r/speed	/jointset/subtalar_r/subtalar_angle_r/speed	/forceset/tau_hip_flexion_r	/forceset/tau_hip_adduction_r	/forceset/tau_hip_rotation_r	/forceset/tau_knee_flexion_r	/forceset/tau_ankle_angle_r	/forceset/tau_subtalar_angle_r	/forceset/tau_lumbar_extension	lambda_cid13_p0	lambda_cid14_p0	lambda_cid14_p1	lambda_cid14_p2	lambda_cid14_p3	lambda_cid14_p4	lambda_cid14_p5	/jointset/ground_pelvis/pelvis_tilt/accel	/jointset/ground_pelvis/pelvis_tx/accel	/jointset/ground_pelvis/pelvis_ty/accel	/jointset/hip_r/hip_flexion_r/accel	/jointset/hip_r/hip_adduction_r/accel	/jointset/hip_r/hip_rotation_r/accel	/jointset/back/lumbar_extension/accel	/jointset/patellofemoral_r/patellar_flexion_r/accel	/jointset/knee_r/knee_flexion_r/accel	/jointset/knee_r/knee_adduction_r/accel	/jointset/knee_r/knee_rotation_r/accel	/jointset/ankle_r/ankle_angle_r/accel	/jointset/subtalar_r/subtalar_angle_r/accel	gamma_cid13_p0	gamma_cid14_p0	gamma_cid14_p1	gamma_cid14_p2	gamma_cid14_p3	gamma_cid14_p4	gamma_cid14_p5
0	0.004175065856236335	0.1257538363283681	0.9348687044461182	0.1934208783645156	-0.2090112212973862	-0.2348661041970763	-0.2903791543005566	0.2311793314021675	0.2311793314021609	0.09163676891066064	0.1550873521758781	0.08934340440958972	0.08756878982499042	0	0	0	0	0	0	0	0	0	0	0	0	0	0.1201801892539696	-0.05818866516543118	0.00116637949233601	-0.244274261408657	0.1162847625404376	-0.05198767892055887	-0.0402012447152102	-29.27636045220072	-7.004458193035092	-20.17906940817816	-0.5022889081540514	7.358749203297562	-602.6590039144185	60.03330138114009	-2.459089039576151	-2.174094379371315	-1.027722176142209	11.73251607927873	-0.05679439352553619	1.940668849503038	-6.712674901341884	11.58320687583431	11.58320687583423	-2.900177976830235	0.7895386925324331	2.991390644742047	0.8329737770140084	3.017270740090953e-08	1.680770679632855e-08	-2.472220721665774e-07	1.97685168157154e-07	9.360695237630789e-09	1.513150146929465e-07	-2.246879350872962e-07
0.01	0.004059795461971816	0.1256466221510811	0.9348187310278692	0.1939915864570651	-0.2090127495248453	-0.234769191233017	-0.2907171708620881	0.2317476113288282	0.2317476113288949	0.09149194461390928	0.1551236268936823	0.08949042642231941	0.08761127721286599	-0.02293334640176231	-0.02132221533877882	-0.009968021121162525	0.1135950714274844	-0.0003227373645413177	0.019309724594958	-0.06715953410366528	0.1131751856404234	0.1131751856404234	-0.02879678823909196	0.007207508087151949	0.02931231625810917	0.008450007639152218	0.1154751772734603	-0.06162359823402599	0.001386377280526019	-0.2401299648266143	0.1106239124831972	-0.04697947034261525	-0.03594229727042073	-29.28374812071718	-8.575382573733286	-18.11725820588861	-1.015817123803015	7.345278816994653	-604.2214736117148	63.92301168222165	-2.192350399547251	-2.093190221651986	-0.9773124377982947	11.09101998560273	-0.02258127056510657	1.915234983054144	-6.651025934629277	11.11254841845377	11.11254841845368	-2.844240387685797	0.6792808898238148	2.887343966906626	0.843878348489793	3.904963295303447e-08	-2.381672597943546e-09	-3.094328975943974e-07	1.981227542011216e-07	3.145783009142561e-08	-1.380064353041821e-09	-2.454075260499808e-07
0.02	0.00371881301189058	0.1253298047983012	0.9346698833268708	0.1956818487260798	-0.2090180186984502	-0.2344813588792683	-0.2917134694186022	0.2334332179140446	0.2334332179140306	0.09106419020661045	0.1552305614967878	0.08992780996775092	0.08773683749535806	-0.04514241116639312	-0.0419206350985711	-0.01977485654983993	0.2239108352997343	-0.0007481892348941078	0.03818387793240896	-0.1316563989973334	0.2234653316931477	0.2234653316931479	-0.05658602208764878	0.01413197709501208	0.05807230653866721	0.01661457892325145	0.1107701652925781	-0.06505853130280795	0.001606375067736019	-0.2359856682446632	0.10496306242588	-0.04197126176491323	-0.03168334982586201	-29.30532734533047	-10.05548711005025	-16.05375821163473	-1.513379036787437	7.355478074038958	-604.3406289652648	67.55175910665629	-2.314232712149813	-2.029335263574168	-0.9954850376451806	11.07665456823194	-0.07733729468783222	1.853554598001612	-6.180141059342517	11.00619895829448	11.00619895829441	-2.698667098723209	0.7329308766740901	2.880925449231611	0.7758865060033522	4.792655850515941e-08	-2.157105199221564e-08	-3.716437230222175e-07	1.985603402450893e-07	5.355496494522044e-08	-1.540751433990301e-07	-2.661271170126655e-07
0.03	0.003158480139131789	0.1248105884879904	0.9344234021335907	0.1984596676899181	-0.2090281337072113	-0.2340074672074023	-0.2933408810237804	0.2362068483081485	0.236206848308111	0.09036392970310418	0.1554054811304816	0.0906495662578588	0.08794240834796052	-0.0668402506912802	-0.06180426613300813	-0.02952249699487429	0.3311232195425979	-0.001277450932114467	0.05649256253758306	-0.1933837423421358	0.3307157639525805	0.3307157639525858	-0.08330467887173981	0.0207840125932091	0.08614469667504902	0.02445974642244237	0.1058974125341425	-0.06164253978182641	0.001760718874741704	-0.2326628967774532	0.1016906123098047	-0.0422556988901344	-0.02744008773841005	-29.34009450013543	-11.10513455045254	-16.32575077342626	-1.510364928281668	7.265608112423798	-604.5618677692256	66.19056213462082	-2.08496933842606	-1.950112099045958	-0.9646022132024632	10.46406966433538	-0.04113050214779741	1.80428623849486	-6.102704017768179	10.50270826209612	10.50270826209656	-2.634294564918156	0.6211909198414876	2.750262741335276	0.7828209355365437	4.844357359961277e-08	-3.888224586233133e-08	-3.710608479866488e-07	1.359693974136467e-07	6.804823918738364e-08	-2.99657605677912e-07	-2.165330080194967e-07
0.04	0.002383686917981162	0.1240960888522006	0.934079404802807	0.2022937183586253	-0.2090436233119327	-0.2333535365201614	-0.2955723006715433	0.2400366316053267	0.2400366316053139	0.08940131671258422	0.1556448913257834	0.09164801983842304	0.08822522868828707	-0.0880344808469419	-0.08097730019436479	-0.0392780840504912	0.4351571762662897	-0.001823108425726484	0.0741916810115467	-0.2524580075156866	0.4346959123051546	0.4346959123051608	-0.1090565195224936	0.02703008942937205	0.1134117646311806	0.03206447646801924	0.1010246597760334	-0.05822654826073771	0.001915062681501591	-0.2293401253100467	0.0984181621938356	-0.04254013601518696	-0.02319682565077213	-29.38644377159022	-12.07225140760118	-16.59736527652537	-1.491336415804029	7.185510934698329	-603.4758470406024	64.59677392397967	-2.213510838304677	-1.887215868958285	-0.9970743597616863	10.44096906439766	-0.08061645396615044	1.731641371759483	-5.649525425092227	10.35214217692274	10.35214217692184	-2.505303872055784	0.6517391442673012	2.71986101318132	0.7277990152804854	4.878821940627908e-08	-5.615471425772215e-08	-3.691832574776081e-07	7.207889728580378e-08	8.238473279837919e-08	-4.450934160646888e-07	-1.65489132016929e-07
0.05	0.001399010747937028	0.1231934293267759	0.9336374601073052	0.2071530394706979	-0.2090650116025559	-0.2325257817822401	-0.2983807473572578	0.2448905600511784	0.2448905600512093	0.08818668031200912	0.1559449943774624	0.09291528578780758	0.0885825213461196	-0.1088009174803924	-0.09943252853778946	-0.04913584575875284	0.53617749346683	-0.002452720306942526	0.09124330242612859	-0.3088101605952723	0.5355747772742285	0.535574777274229	-0.1337219103301612	0.03291935676778886	0.1399249404775552	0.03936740913831296	0.09563217755553999	-0.05678003594025894	0.002127475257217873	-0.2263156169847285	0.09483582062690576	-0.0409393110846562	-0.01868965881023577	-29.44254250402099	-13.02126134500218	-16.02365943283094	-1.633781949797696	6.993095454232488	-602.4046383501988	64.73103793930127	-1.993225809551437	-1.806348271931587	-0.9839658766012515	9.853130674365708	-0.05388924657196432	1.674552000928975	-5.564884894652738	9.878498957130626	9.87849895713021	-2.424879101384711	0.5468649266039028	2.599578038350361	0.7274951688352036	4.606673800219061e-08	-7.002981496755237e-08	-3.643454901876893e-07	-4.708364512020968e-08	9.258814397099962e-08	-5.608411480145919e-07	-7.474849249393809e-08
0.06	0.0002096670648360346	0.1221098831269367	0.9330961700346734	0.2130066772800638	-0.2090926471502509	-0.2315309849352349	-0.3017400805028155	0.2507378252068134	0.2507378252068033	0.08672984552003865	0.1563018589820308	0.09444418992925782	0.08901203428584144	-0.1289679834613125	-0.1171546350772604	-0.05914715947649298	0.6340205157266995	-0.003072559843026778	0.1076001028255759	-0.3626352994852827	0.6333632542525408	0.6333632542525425	-0.1574961977883138	0.03838240002521798	0.1657394030433197	0.0465085328458533	0.09023969533487221	-0.05533352361990464	0.002339887832403932	-0.2232911086594624	0.09125347905992469	-0.03933848615428653	-0.01418249196978856	-29.50613448567177	-13.89660394767148	-15.44822061272891	-1.763749395703243	6.794308251779191	-600.1808718163894	64.67931121935067	-2.093636707798567	-1.740591508167767	-1.027784761657381	9.805510076263603	-0.07866198493978677	1.592677168732523	-5.144122587177211	9.734064578770411	9.73406457877091	-2.327083202152822	0.5664943280698166	2.580118357059015	0.6954372227297502	4.321615650501774e-08	-8.376186861693792e-08	-3.593830838754177e-07	-1.685734314116197e-07	1.02617530619899e-07	-6.753388556092582e-07	1.766358970359685e-08
0.07000000000000001	-0.001179063461716272	0.1208528001561436	0.9324537121826495	0.2198237537397646	-0.2091268777179827	-0.2303759040004033	-0.3056243559519996	0.2575478747084829	0.2575478747084778	0.08504069064534472	0.1567112396487663	0.09622768615304031	0.0895115892305311	-0.1486855054352827	-0.1341357749153174	-0.06938641668672496	0.7288675346253221	-0.003768454508034742	0.1232817784432337	-0.4137992332444873	0.7281205798149823	0.7281205798149889	-0.1801869368653583	0.04342231810100959	0.1908373445259427	0.05337978303286014	0.08454327543043927	-0.05334382764439459	0.002574218150006729	-0.220885612291195	0.08832047130955684	-0.03809187028413356	-0.009505450309099626	-29.57481203924479	-14.60431406022225	-15.01760633984732	-1.847392087089595	6.475922642980311	-598.252755048198	64.33257863638138	-1.896905003819464	-1.65792695232695	-1.028433520082576	9.245211687381454	-0.06435484773228303	1.535752223207655	-5.039445204200915	9.267647996144401	9.267647996144619	-2.217964249555146	0.4620045636672261	2.456264970117412	0.6794921920096554	3.603983974076473e-08	-9.744373260716516e-08	-3.43963940718655e-07	-3.610569995655823e-07	1.108413285126343e-07	-7.77279120627407e-07	1.60786594961462e-07
0.08	-0.002762188220321439	0.1194296954408287	0.931707574294649	0.2275734831665952	-0.2091679275604528	-0.22906803841641	-0.3100076540255549	0.2652897137560238	0.2652897137560142	0.08312904938209029	0.1571688722994846	0.09825848837689934	0.09007916133215564	-0.167846829874217	-0.1503589839816455	-0.07988316667180649	0.820551109152714	-0.004436414791086529	0.1381570326579069	-0.4624398243600292	0.8197211634239623	0.8197211634239705	-0.2019934755054	0.04803279683014252	0.2152006030587025	0.06011196423280422	0.0788468555259637	-0.05135413166888676	0.002808548467379518	-0.2184801159229096	0.08538746355920279	-0.03684525441397596	-0.004828408648456407	-29.64582467639137	-15.24770934719567	-14.58545411949382	-1.920173172203358	6.134401867722957	-595.3286994520504	63.85029990745631	-1.982397200791356	-1.589005353822227	-1.079283316627284	9.172821202017584	-0.07307510854853544	1.431392888135538	-4.639454058444684	9.102716188078071	9.102716188077933	-2.150243114752277	0.4806064587381371	2.433181767086113	0.6676234253171337	2.85844432818614e-08	-1.11122358554866e-07	-3.278701693783767e-07	-5.581208117106769e-07	1.189486368081977e-07	-8.784092280599738e-07	3.071812726748321e-07
